# xmcd
#
# Track frame offsets: 
#        150
#        12563
#        25308
#        36549
#        44542
#        55332
#        61026
#        71915
#        81113
#        91010
#        99423
#        109493
#        121831
#        131916
#        142761
#        152519
#        163914
#        174258
#        184054
#        196630
#
# Disc length: 2753 seconds
#
# Revision: 8
# Processed by: cddbd v1.5.2PL0 Copyright (c) Steve Scherf et al.
# Submitted via: ExactAudioCopyFreeDBPlugin 1.0
#
DISCID=0f0abf14
DTITLE=Johnny Cash - Best of Johnny Cash
DYEAR=2000
DGENRE=Country
TTITLE0=I Walk the Line
TTITLE1=Folsom Prison Blues
TTITLE2=Oh, Lonesome Me
TTITLE3=Wreck of the Old 97
TTITLE4=Train of Love
TTITLE5=My Treasure
TTITLE6=Belshazzar
TTITLE7=Blue Train
TTITLE8=Ballad of A Teenage Queen
TTITLE9=Country Boy
TTITLE10=Get Rhythm
TTITLE11=Give My Love To Rose
TTITLE12=Goodbye Little Darling
TTITLE13=I Heard That Lonesome Whistle Blow
TTITLE14=Born To Lose
TTITLE15=Big River
TTITLE16=You Win Again
TTITLE17=Rock island Line
TTITLE18=Next in Line
TTITLE19=Hey Porter
EXTD=
EXTT0=
EXTT1=
EXTT2=
EXTT3=
EXTT4=
EXTT5=
EXTT6=
EXTT7=
EXTT8=
EXTT9=
EXTT10=
EXTT11=
EXTT12=
EXTT13=
EXTT14=
EXTT15=
EXTT16=
EXTT17=
EXTT18=
EXTT19=
PLAYORDER=
